<?xml version="1.0" encoding="UTF-8"?>
<svg id="Layer_1" data-name="Layer 1" xmlns="http://www.w3.org/2000/svg" viewBox="0 0 748.5 133">
  <defs>
    <style>
      .cls-1 {
        fill: #b28a3c;
      }

      .cls-2 {
        fill: #8a1f2d;
      }
    </style>
  </defs>
  <path class="cls-1" d="M53.5,81.7l-12.5,15c.2,7.7.8,14.5,1.8,20.4.9,5.9,2.8,10.2,5.5,12.9v.9H0v-.9c3-3.1,4.9-8.2,5.9-15.1.9-7,1.4-15,1.4-23.9v-50.8c0-9-.5-17-1.4-23.9C4.9,9.1,3,4.1,0,.9V0h48.2v.9c-3,3.1-5,8.2-5.9,15.1-.9,7-1.4,15-1.4,23.9v12.9l24.3-29.2c.8-1,1.7-2.3,2.8-3.8s2.2-3.1,3.4-4.8c1.1-1.6,2.1-3.2,2.8-4.9.8-1.6,1.1-3,1.1-4.1s-.2-2.4-.6-3.2-.8-1.4-1.3-2.1V0h48.4v.9c-1.5,1.3-3,2.7-4.5,4.2-1.5,1.6-2.9,3.2-4.3,4.8l-35.5,42.6,22.4,35.9c2.7,4.4,5.4,8.6,8.1,12.6s5.3,7.7,7.9,11,5.2,6.1,7.8,8.3c2.6,2.2,5.2,3.6,7.8,4.1v.9c-3.2,2.9-6.8,4.8-10.7,5.9-3.9,1.1-7.5,1.6-11,1.6s-8.5-.4-12.1-1.1-6.9-2-10-3.8-6.1-4.2-8.8-7.2-5.5-6.7-8.2-11.2l-17.6-27.9h0l.4.1Z"/>
  <path class="cls-1" d="M171.6,0v.7c-2.2,2.3-3.7,6.1-4.4,11.3-.7,5.2-1.1,11.2-1.1,17.9v27.6c0,6.2,1.7,10.9,5,14.1,3.4,3.3,7.8,4.9,13.2,5,5.4,0,9.8-1.8,13.2-5,3.4-3.3,5-8,5-14.1v-27.6c0-6.7-.3-12.7-1-17.9-.6-5.2-2.1-9-4.5-11.3V0h36.1v.7c-2.2,2.3-3.7,6.1-4.4,11.3-.7,5.2-1.1,11.2-1.1,17.9v27.6c0,6.4-.9,12.2-2.6,17.4s-4.4,9.6-7.9,13.2-8.1,6.4-13.5,8.4c-5.5,2-11.9,2.9-19.4,2.9s-13.9-1-19.4-2.9-10-4.8-13.5-8.4c-3.6-3.6-6.2-8.1-7.9-13.2-1.7-5.2-2.6-11-2.6-17.4v-27.6c0-6.7-.4-12.7-1.1-17.9-.7-5.2-2.2-9-4.4-11.3V0h36.3Z"/>
  <path class="cls-1" d="M264.6,99.4c2.3-2.3,3.8-6.1,4.5-11.3.6-5.2,1-11.2,1-17.9V23.5c-3,0-5.8,0-8.5.1s-5.2.4-7.6.8-4.7,1.1-6.9,2-4.3,2.2-6.2,3.9h-.7c0-.1,5-30,5-30L245.9,0c1.2.6,2.8,1,4.8,1.3,2,.3,4.3.5,6.9.6,2.6.1,5.3.2,8.3.2h33.5c2.9,0,5.7,0,8.3-.2,2.6-.1,4.9-.4,6.9-.6s3.7-.7,4.9-1.3l.7.3,5,29.8h-.7c-2-1.5-4-2.8-6.2-3.7-2.2-.9-4.5-1.5-6.9-2s-5-.7-7.6-.8-5.5-.1-8.5-.1v46.6c0,6.7.4,12.7,1,17.9.7,5.2,2.2,9,4.4,11.3v.7h-36.1v-.7h0v.1Z"/>
  <path class="cls-1" d="M355.9,99.4c2.3-2.3,3.8-6.1,4.5-11.3.6-5.2,1-11.2,1-17.9V23.5c-3,0-5.8,0-8.5.1s-5.2.4-7.6.8-4.7,1.1-6.9,2c-2.2.9-4.3,2.2-6.2,3.9h-.7c0-.1,5-30,5-30L337.2,0c1.2.6,2.8,1,4.8,1.3,2,.3,4.3.5,6.9.6s5.3.2,8.3.2h33.5c2.9,0,5.7,0,8.3-.2,2.6-.1,4.9-.4,6.9-.6s3.7-.7,4.9-1.3l.7.3,5,29.8h-.7c-2-1.5-4-2.8-6.2-3.7s-4.5-1.5-6.9-2c-2.4-.4-5-.7-7.6-.8s-5.5-.1-8.5-.1v46.6c0,6.7.4,12.7,1,17.9.7,5.2,2.2,9,4.4,11.3v.7h-36.1v-.7.1Z"/>
  <path class="cls-1" d="M520.8,98v-.7c2.2-2.3,3.7-6.1,4.4-11.3.7-5.2,1-11.2,1-17.9V30c0-6.7-.3-12.7-1-17.9-.7-5.2-2.2-9-4.4-11.3V0h43.1C568.9,0,573.8.3,578.8.8c5,.5,9.4,1.7,13.3,3.4s7.1,4.3,9.5,7.7,3.6,7.8,3.6,13.4-1.1,9.3-3.2,13c-2.2,3.7-5.2,6.9-9.1,9.6,2.2.8,4.4,1.8,6.5,3.2s3.9,3.1,5.5,5,2.8,4.1,3.8,6.6c.9,2.5,1.4,5.1,1.4,7.9,0,4.8-.8,8.9-2.4,12.3s-3.8,6.3-6.6,8.5-6.1,3.9-9.9,5c-3.8,1.1-7.8,1.6-12.1,1.6h-58.4.1ZM551.5,40.8c9.5,0,16.5-1,21.1-2.9s6.8-4.9,6.8-9-1.3-4.6-4-6-6.9-2.1-12.7-2.1-3.8,0-5.7.2-3.8.3-5.5.5v19.3h0ZM572.2,56.2c-3.4.8-6.8,1.3-10.2,1.8-3.5.4-7,.7-10.5.9v18.1c4.8.3,8.9.4,12.5.4s4,0,6.3-.3,4.5-.6,6.5-1.3c2-.7,3.7-1.8,5.1-3.2s2.1-3.3,2.1-5.7-.3-2.9-1-4.1-1.6-2.4-2.7-3.4-2.4-1.8-3.8-2.3-2.8-.8-4.2-.8l-.1-.1Z"/>
  <path class="cls-1" d="M666.3,0v.9c-3,3.1-5,8.2-5.9,15.1-.9,7-1.4,15-1.4,23.9v36.8c0,8.2,2.2,14.5,6.7,18.9s10.3,6.6,17.6,6.7c7.2-.1,13.1-2.4,17.6-6.7,4.5-4.4,6.7-10.7,6.7-18.9v-36.8c0-9-.4-17-1.3-23.9s-2.9-12-6-15.1V0h48.2v.9c-3,3.1-5,8.2-5.9,15.1-.9,7-1.4,15-1.4,23.9v36.8c0,8.6-1.2,16.4-3.5,23.3s-5.8,12.8-10.6,17.7c-4.7,4.9-10.8,8.6-18,11.2-7.3,2.6-15.9,3.9-25.9,3.9s-18.6-1.3-25.9-3.9c-7.3-2.6-13.3-6.4-18-11.2-4.7-4.9-8.3-10.8-10.6-17.7-2.3-6.9-3.5-14.7-3.5-23.3v-36.8c0-9-.5-17-1.4-23.9-.9-7-2.9-12-5.9-15.1V0h48.4Z"/>
  <g>
    <path class="cls-1" d="M507.3,85.3c-2.3-4.8-4.2-9.2-5.8-13.4L473.2,0h-32.8v.7c.5.6.9,1.3,1.3,2.2s.6,2.2.6,3.8-.1,1.2-.4,2.3c-.2,1.2-.8,3-1.8,5.4l-22.7,57.4c-1.6,4.2-3.5,8.7-5.8,13.4-2.3,4.8-4.9,8.8-7.9,12v.7h36.8v-.7c-.5-.6-.9-1.3-1.3-2.3s-.6-2.3-.6-4,.1-2.6.5-4.1c.3-1.5.9-3.3,1.6-5.5v-.3c.1,0,14.7-37,14.7-37l3.9-9.9,4,9.9,6.1,15.4h0l6.8,17.2,1.8,4.6c.8,2.1,1.4,3.8,1.8,5.4.3,1.5.5,2.9.5,4.1s-.2,3-.6,4-.9,1.8-1.3,2.3v.7h36.8v-.7c-3-3.3-5.6-7.3-7.9-12h0v.3Z"/>
    <polygon class="cls-2" points="460.3 64 452.6 77.3 460.3 90.6 468 77.3 460.3 64"/>
  </g>
  <g>
    <path class="cls-2" d="M179.9,116.8h-6.6v15.9h-2.1v-15.9h-6.5v-1.9h15.2v1.9h0Z"/>
    <path class="cls-2" d="M197.6,125c0,4.7-3,7.9-7.6,7.9s-7.6-3.2-7.6-7.9v-10.2h2.1v10.2c0,3.5,2.2,6,5.5,6s5.5-2.5,5.5-6v-10.2h2.1v10.2h0ZM188.8,111.2c0,.8-.6,1.3-1.4,1.3s-1.4-.6-1.4-1.3.6-1.4,1.4-1.4,1.4.6,1.4,1.4ZM193.8,111.2c0,.8-.6,1.3-1.4,1.3s-1.4-.6-1.4-1.3.6-1.4,1.4-1.4,1.4.6,1.4,1.4Z"/>
    <path class="cls-2" d="M208.8,126.3h-4.5v6.3h-2.1v-17.8h6.7c4,0,6.8,2.2,6.8,5.7s-1.8,4.8-4.6,5.5l5.4,6.6h-2.6l-5.2-6.3h.1ZM204.2,124.3h4.6c2.8,0,4.8-1.4,4.8-3.8s-2-3.8-4.8-3.8h-4.6v7.6h0Z"/>
    <path class="cls-2" d="M225.1,124.4l-3.4,3.6v4.6h-2.1v-17.8h2.1v10.3l9.9-10.3h2.5l-7.6,8.1,8.5,9.7h-2.7l-7.2-8.2h0Z"/>
    <path class="cls-2" d="M260.7,123.6c0,5.3-3.9,9-9.4,9h-6.2v-17.8h6.2c5.5,0,9.4,3.6,9.4,8.8h0ZM258.6,123.6c0-4-3-6.8-7.3-6.8h-4.2v14h4.2c4.2,0,7.3-2.9,7.3-7.1v-.1Z"/>
    <path class="cls-2" d="M279.6,125c0,4.7-3,7.9-7.6,7.9s-7.6-3.2-7.6-7.9v-10.2h2.1v10.2c0,3.5,2.2,6,5.5,6s5.5-2.5,5.5-6v-10.2h2.1v10.2h0ZM270.9,111.2c0,.8-.6,1.3-1.4,1.3s-1.4-.6-1.4-1.3.6-1.4,1.4-1.4,1.4.6,1.4,1.4ZM275.9,111.2c0,.8-.6,1.3-1.4,1.3s-1.4-.6-1.4-1.3.6-1.4,1.4-1.4,1.4.6,1.4,1.4Z"/>
    <path class="cls-2" d="M299.4,114.8v17.8h-1.7l-11.4-14v14h-2.1v-17.8h1.7l11.4,14.2v-14.2h2.1Z"/>
    <path class="cls-2" d="M318.9,114.8l-7.3,11.5v6.3h-2.1v-6.3l-7.3-11.5h2.3l6.1,9.5,6-9.5h2.3Z"/>
    <path class="cls-2" d="M330.7,127.7h-9.2l-2.2,5h-2.2l8-17.8h2l8,17.8h-2.2l-2.2-5h0ZM329.8,125.8l-3.8-8.5-3.8,8.5h7.6Z"/>
    <path class="cls-2" d="M350.9,119.7h-2.1c-.4-2.1-1.9-3.4-4.8-3.4s-4.3,1.2-4.3,3.2,1.1,2.5,3.2,2.9l2.9.6c3.2.6,5,2.1,5,4.7s-2.7,5.3-6.7,5.3-7-2.2-7.4-6h2c.4,2.7,2.3,4.2,5.5,4.2s4.4-1.2,4.4-3.2-1-2.5-3.2-2.9l-3.3-.7c-3.2-.6-4.7-2.2-4.7-4.7s2.6-5.1,6.4-5.1,6.5,1.5,7,5.2h0l.1-.1Z"/>
    <path class="cls-2" d="M357,114.8v17.8h-2.1v-17.8h2.1Z"/>
    <path class="cls-2" d="M377,114.8v17.8h-1.7l-11.4-14v14h-2.1v-17.8h1.7l11.4,14.2v-14.2h2.1Z"/>
    <path class="cls-2" d="M383.9,114.8v17.8h-2.1v-17.8h2.1Z"/>
    <path class="cls-2" d="M403.9,114.8v17.8h-1.7l-11.4-14v14h-2.1v-17.8h1.7l11.4,14.2v-14.2h2.1Z"/>
    <path class="cls-2" d="M427.6,116.8h-6.6v15.9h-2.1v-15.9h-6.5v-1.9h15.2v1.9h0Z"/>
    <path class="cls-2" d="M440.1,127.7h-9.2l-2.2,5h-2.2l8-17.8h2l8,17.8h-2.2l-2.2-5h0ZM439.2,125.8l-3.8-8.5-3.8,8.5h7.6Z"/>
    <path class="cls-2" d="M461.8,127.8c0,2.9-2.5,4.9-6.5,4.9h-7.6v-17.8h7.4c3.6,0,5.8,1.8,5.8,4.5s-1.1,3.5-3,4.1c2.6.4,3.9,2.1,3.9,4.3h0ZM449.8,116.7v6.1h4.8c2.7,0,4.3-1.2,4.3-3.2s-1.5-2.9-4-2.9h-5.1,0ZM459.7,127.5c0-1.9-1.7-3.1-4.5-3.1h-5.5v6.3h5.4c2.9,0,4.5-1.4,4.5-3.2h.1Z"/>
    <path class="cls-2" d="M480.2,125c0,4.7-3,7.9-7.6,7.9s-7.6-3.2-7.6-7.9v-10.2h2.1v10.2c0,3.5,2.2,6,5.5,6s5.5-2.5,5.5-6v-10.2h2.1v10.2Z"/>
    <path class="cls-2" d="M509.2,123.7c0,5.1-4.1,9.2-9.2,9.2s-9.2-4.1-9.2-9.2,4.1-9.2,9.2-9.2,9.2,4.1,9.2,9.2ZM507.1,123.7c0-4-3.1-7.3-7.2-7.3s-7.2,3.2-7.2,7.3,3.1,7.3,7.2,7.3,7.2-3.2,7.2-7.3Z"/>
    <path class="cls-2" d="M526.5,114.8l-7.3,11.5v6.3h-2.1v-6.3l-7.3-11.5h2.3l6.1,9.5,6-9.5h2.3Z"/>
    <path class="cls-2" d="M544.3,125c0,4.7-3,7.9-7.6,7.9s-7.6-3.2-7.6-7.9v-10.2h2.1v10.2c0,3.5,2.2,6,5.5,6s5.5-2.5,5.5-6v-10.2h2.1v10.2Z"/>
    <path class="cls-2" d="M564.1,114.8v17.8h-1.7l-11.4-14v14h-2.1v-17.8h1.7l11.4,14.2v-14.2h2.1Z"/>
    <path class="cls-2" d="M583.9,125c0,4.7-3,7.9-7.6,7.9s-7.6-3.2-7.6-7.9v-10.2h2.1v10.2c0,3.5,2.2,6,5.5,6s5.5-2.5,5.5-6v-10.2h2.1v10.2Z"/>
  </g>
</svg>